<?xml version="1.0" standalone="no"?>
<!DOCTYPE svg PUBLIC "-//W3C//DTD SVG 20010904//EN"
 "http://www.w3.org/TR/2001/REC-SVG-20010904/DTD/svg10.dtd">
<svg version="1.0" xmlns="http://www.w3.org/2000/svg"
 width="100.000000pt" height="100.000000pt" viewBox="0 0 100.000000 100.000000"
 preserveAspectRatio="xMidYMid meet">

<g transform="translate(0.000000,100.000000) scale(0.100000,-0.100000)"
fill="#000000" stroke="none">
<path d="M318 837 c-93 -34 -168 -66 -168 -72 0 -14 319 -185 345 -185 27 0
345 171 345 185 0 9 -334 137 -350 134 -3 0 -80 -28 -172 -62z m463 -71 c0 -5
-63 -43 -141 -84 -130 -68 -145 -73 -169 -62 -25 12 -21 15 119 86 131 67 190
85 191 60z"/>
<path d="M137 714 c-4 -4 -7 -90 -7 -190 l0 -183 43 -34 c99 -79 279 -198 293
-193 11 4 14 41 14 201 0 111 -4 204 -10 215 -5 10 -78 56 -162 102 -181 99
-163 90 -171 82z"/>
<path d="M680 631 l-155 -87 -3 -222 c-1 -122 0 -222 4 -222 3 0 77 52 165
116 99 72 161 124 164 137 10 39 1 360 -10 363 -5 1 -80 -37 -165 -85z"/>
</g>
</svg>
